<?xml version="1.0" encoding="UTF-8" standalone="no"?><!DOCTYPE svg PUBLIC "-//W3C//DTD SVG 1.1//EN" "http://www.w3.org/Graphics/SVG/1.1/DTD/svg11.dtd"><svg width="100%" height="100%" viewBox="0 0 1024 1024" version="1.1" xmlns="http://www.w3.org/2000/svg" xmlns:xlink="http://www.w3.org/1999/xlink" xml:space="preserve" xmlns:serif="http://www.serif.com/" style="fill-rule:evenodd;clip-rule:evenodd;stroke-linejoin:round;stroke-miterlimit:2;"><path d="M-0,-42.039c13.473,-26.509 40.421,-26.509 53.894,-13.255c13.475,13.255 13.475,39.765 0,66.275c-9.431,19.882 -33.684,39.764 -53.894,53.019c-20.211,-13.255 -44.463,-33.137 -53.895,-53.019c-13.473,-26.51 -13.473,-53.02 0,-66.275c13.474,-13.254 40.421,-13.254 53.895,13.255Z" style="fill:#6b0023;"/><path d="M128,85.961c13.473,-26.509 40.421,-26.509 53.894,-13.255c13.475,13.255 13.475,39.765 0,66.275c-9.431,19.882 -33.684,39.764 -53.894,53.019c-20.211,-13.255 -44.463,-33.137 -53.895,-53.019c-13.473,-26.51 -13.473,-53.02 0,-66.275c13.474,-13.254 40.421,-13.254 53.895,13.255Z" style="fill:#6b0023;"/><path d="M256,-42.039c13.473,-26.509 40.421,-26.509 53.894,-13.255c13.475,13.255 13.475,39.765 0,66.275c-9.431,19.882 -33.684,39.764 -53.894,53.019c-20.211,-13.255 -44.463,-33.137 -53.895,-53.019c-13.473,-26.51 -13.473,-53.02 0,-66.275c13.474,-13.254 40.421,-13.254 53.895,13.255Z" style="fill:#6b0023;"/><path d="M384,85.961c13.473,-26.509 40.421,-26.509 53.894,-13.255c13.475,13.255 13.475,39.765 0,66.275c-9.431,19.882 -33.684,39.764 -53.894,53.019c-20.211,-13.255 -44.463,-33.137 -53.895,-53.019c-13.473,-26.51 -13.473,-53.02 0,-66.275c13.474,-13.254 40.421,-13.254 53.895,13.255Z" style="fill:#6b0023;"/><path d="M512,-42.039c13.473,-26.509 40.421,-26.509 53.894,-13.255c13.475,13.255 13.475,39.765 0,66.275c-9.431,19.882 -33.684,39.764 -53.894,53.019c-20.211,-13.255 -44.463,-33.137 -53.895,-53.019c-13.473,-26.51 -13.473,-53.02 0,-66.275c13.474,-13.254 40.421,-13.254 53.895,13.255Z" style="fill:#6b0023;"/><path d="M640,85.961c13.473,-26.509 40.421,-26.509 53.894,-13.255c13.475,13.255 13.475,39.765 0,66.275c-9.431,19.882 -33.684,39.764 -53.894,53.019c-20.211,-13.255 -44.463,-33.137 -53.895,-53.019c-13.473,-26.51 -13.473,-53.02 0,-66.275c13.474,-13.254 40.421,-13.254 53.895,13.255Z" style="fill:#6b0023;"/><path d="M896,85.961c13.473,-26.509 40.421,-26.509 53.894,-13.255c13.475,13.255 13.475,39.765 0,66.275c-9.431,19.882 -33.684,39.764 -53.894,53.019c-20.211,-13.255 -44.463,-33.137 -53.895,-53.019c-13.473,-26.51 -13.473,-53.02 0,-66.275c13.474,-13.254 40.421,-13.254 53.895,13.255Z" style="fill:#6b0023;"/><path d="M768,-42.039c13.473,-26.509 40.421,-26.509 53.894,-13.255c13.475,13.255 13.475,39.765 0,66.275c-9.431,19.882 -33.684,39.764 -53.894,53.019c-20.211,-13.255 -44.463,-33.137 -53.895,-53.019c-13.473,-26.51 -13.473,-53.02 0,-66.275c13.474,-13.254 40.421,-13.254 53.895,13.255Z" style="fill:#6b0023;"/><path d="M-0,213.961c13.473,-26.509 40.421,-26.509 53.894,-13.255c13.475,13.255 13.475,39.765 0,66.275c-9.431,19.882 -33.684,39.764 -53.894,53.019c-20.211,-13.255 -44.463,-33.137 -53.895,-53.019c-13.473,-26.51 -13.473,-53.02 0,-66.275c13.474,-13.254 40.421,-13.254 53.895,13.255Z" style="fill:#6b0023;"/><path d="M128,341.961c13.473,-26.509 40.421,-26.509 53.894,-13.255c13.475,13.255 13.475,39.765 0,66.275c-9.431,19.882 -33.684,39.764 -53.894,53.019c-20.211,-13.255 -44.463,-33.137 -53.895,-53.019c-13.473,-26.51 -13.473,-53.02 0,-66.275c13.474,-13.254 40.421,-13.254 53.895,13.255Z" style="fill:#6b0023;"/><path d="M256,213.961c13.473,-26.509 40.421,-26.509 53.894,-13.255c13.475,13.255 13.475,39.765 0,66.275c-9.431,19.882 -33.684,39.764 -53.894,53.019c-20.211,-13.255 -44.463,-33.137 -53.895,-53.019c-13.473,-26.51 -13.473,-53.02 0,-66.275c13.474,-13.254 40.421,-13.254 53.895,13.255Z" style="fill:#6b0023;"/><path d="M384,341.961c13.473,-26.509 40.421,-26.509 53.894,-13.255c13.475,13.255 13.475,39.765 0,66.275c-9.431,19.882 -33.684,39.764 -53.894,53.019c-20.211,-13.255 -44.463,-33.137 -53.895,-53.019c-13.473,-26.51 -13.473,-53.02 0,-66.275c13.474,-13.254 40.421,-13.254 53.895,13.255Z" style="fill:#6b0023;"/><path d="M512,213.961c13.473,-26.509 40.421,-26.509 53.894,-13.255c13.475,13.255 13.475,39.765 0,66.275c-9.431,19.882 -33.684,39.764 -53.894,53.019c-20.211,-13.255 -44.463,-33.137 -53.895,-53.019c-13.473,-26.51 -13.473,-53.02 0,-66.275c13.474,-13.254 40.421,-13.254 53.895,13.255Z" style="fill:#6b0023;"/><path d="M640,341.961c13.473,-26.509 40.421,-26.509 53.894,-13.255c13.475,13.255 13.475,39.765 0,66.275c-9.431,19.882 -33.684,39.764 -53.894,53.019c-20.211,-13.255 -44.463,-33.137 -53.895,-53.019c-13.473,-26.51 -13.473,-53.02 0,-66.275c13.474,-13.254 40.421,-13.254 53.895,13.255Z" style="fill:#6b0023;"/><path d="M896,341.961c13.473,-26.509 40.421,-26.509 53.894,-13.255c13.475,13.255 13.475,39.765 0,66.275c-9.431,19.882 -33.684,39.764 -53.894,53.019c-20.211,-13.255 -44.463,-33.137 -53.895,-53.019c-13.473,-26.51 -13.473,-53.02 0,-66.275c13.474,-13.254 40.421,-13.254 53.895,13.255Z" style="fill:#6b0023;"/><path d="M768,213.961c13.473,-26.509 40.421,-26.509 53.894,-13.255c13.475,13.255 13.475,39.765 0,66.275c-9.431,19.882 -33.684,39.764 -53.894,53.019c-20.211,-13.255 -44.463,-33.137 -53.895,-53.019c-13.473,-26.51 -13.473,-53.02 0,-66.275c13.474,-13.254 40.421,-13.254 53.895,13.255Z" style="fill:#6b0023;"/><path d="M-0,469.961c13.473,-26.509 40.421,-26.509 53.894,-13.255c13.475,13.255 13.475,39.765 0,66.275c-9.431,19.882 -33.684,39.764 -53.894,53.019c-20.211,-13.255 -44.463,-33.137 -53.895,-53.019c-13.473,-26.51 -13.473,-53.02 0,-66.275c13.474,-13.254 40.421,-13.254 53.895,13.255Z" style="fill:#6b0023;"/><path d="M128,597.961c13.473,-26.509 40.421,-26.509 53.894,-13.255c13.475,13.255 13.475,39.765 0,66.275c-9.431,19.882 -33.684,39.764 -53.894,53.019c-20.211,-13.255 -44.463,-33.137 -53.895,-53.019c-13.473,-26.51 -13.473,-53.02 0,-66.275c13.474,-13.254 40.421,-13.254 53.895,13.255Z" style="fill:#6b0023;"/><path d="M256,469.961c13.473,-26.509 40.421,-26.509 53.894,-13.255c13.475,13.255 13.475,39.765 0,66.275c-9.431,19.882 -33.684,39.764 -53.894,53.019c-20.211,-13.255 -44.463,-33.137 -53.895,-53.019c-13.473,-26.51 -13.473,-53.02 0,-66.275c13.474,-13.254 40.421,-13.254 53.895,13.255Z" style="fill:#6b0023;"/><path d="M384,597.961c13.473,-26.509 40.421,-26.509 53.894,-13.255c13.475,13.255 13.475,39.765 0,66.275c-9.431,19.882 -33.684,39.764 -53.894,53.019c-20.211,-13.255 -44.463,-33.137 -53.895,-53.019c-13.473,-26.51 -13.473,-53.02 0,-66.275c13.474,-13.254 40.421,-13.254 53.895,13.255Z" style="fill:#6b0023;"/><path d="M512,469.961c13.473,-26.509 40.421,-26.509 53.894,-13.255c13.475,13.255 13.475,39.765 0,66.275c-9.431,19.882 -33.684,39.764 -53.894,53.019c-20.211,-13.255 -44.463,-33.137 -53.895,-53.019c-13.473,-26.51 -13.473,-53.02 0,-66.275c13.474,-13.254 40.421,-13.254 53.895,13.255Z" style="fill:#6b0023;"/><path d="M640,597.961c13.473,-26.509 40.421,-26.509 53.894,-13.255c13.475,13.255 13.475,39.765 0,66.275c-9.431,19.882 -33.684,39.764 -53.894,53.019c-20.211,-13.255 -44.463,-33.137 -53.895,-53.019c-13.473,-26.51 -13.473,-53.02 0,-66.275c13.474,-13.254 40.421,-13.254 53.895,13.255Z" style="fill:#6b0023;"/><path d="M896,597.961c13.473,-26.509 40.421,-26.509 53.894,-13.255c13.475,13.255 13.475,39.765 0,66.275c-9.431,19.882 -33.684,39.764 -53.894,53.019c-20.211,-13.255 -44.463,-33.137 -53.895,-53.019c-13.473,-26.51 -13.473,-53.02 0,-66.275c13.474,-13.254 40.421,-13.254 53.895,13.255Z" style="fill:#6b0023;"/><path d="M768,469.961c13.473,-26.509 40.421,-26.509 53.894,-13.255c13.475,13.255 13.475,39.765 0,66.275c-9.431,19.882 -33.684,39.764 -53.894,53.019c-20.211,-13.255 -44.463,-33.137 -53.895,-53.019c-13.473,-26.51 -13.473,-53.02 0,-66.275c13.474,-13.254 40.421,-13.254 53.895,13.255Z" style="fill:#6b0023;"/><path d="M-0,725.961c13.473,-26.509 40.421,-26.509 53.894,-13.255c13.475,13.255 13.475,39.765 0,66.275c-9.431,19.882 -33.684,39.764 -53.894,53.019c-20.211,-13.255 -44.463,-33.137 -53.895,-53.019c-13.473,-26.51 -13.473,-53.02 0,-66.275c13.474,-13.254 40.421,-13.254 53.895,13.255Z" style="fill:#6b0023;"/><path d="M128,853.961c13.473,-26.509 40.421,-26.509 53.894,-13.255c13.475,13.255 13.475,39.765 0,66.275c-9.431,19.882 -33.684,39.764 -53.894,53.019c-20.211,-13.255 -44.463,-33.137 -53.895,-53.019c-13.473,-26.51 -13.473,-53.02 0,-66.275c13.474,-13.254 40.421,-13.254 53.895,13.255Z" style="fill:#6b0023;"/><path d="M256,725.961c13.473,-26.509 40.421,-26.509 53.894,-13.255c13.475,13.255 13.475,39.765 0,66.275c-9.431,19.882 -33.684,39.764 -53.894,53.019c-20.211,-13.255 -44.463,-33.137 -53.895,-53.019c-13.473,-26.51 -13.473,-53.02 0,-66.275c13.474,-13.254 40.421,-13.254 53.895,13.255Z" style="fill:#6b0023;"/><path d="M384,853.961c13.473,-26.509 40.421,-26.509 53.894,-13.255c13.475,13.255 13.475,39.765 0,66.275c-9.431,19.882 -33.684,39.764 -53.894,53.019c-20.211,-13.255 -44.463,-33.137 -53.895,-53.019c-13.473,-26.51 -13.473,-53.02 0,-66.275c13.474,-13.254 40.421,-13.254 53.895,13.255Z" style="fill:#6b0023;"/><path d="M512,725.961c13.473,-26.509 40.421,-26.509 53.894,-13.255c13.475,13.255 13.475,39.765 0,66.275c-9.431,19.882 -33.684,39.764 -53.894,53.019c-20.211,-13.255 -44.463,-33.137 -53.895,-53.019c-13.473,-26.51 -13.473,-53.02 0,-66.275c13.474,-13.254 40.421,-13.254 53.895,13.255Z" style="fill:#6b0023;"/><path d="M640,853.961c13.473,-26.509 40.421,-26.509 53.894,-13.255c13.475,13.255 13.475,39.765 0,66.275c-9.431,19.882 -33.684,39.764 -53.894,53.019c-20.211,-13.255 -44.463,-33.137 -53.895,-53.019c-13.473,-26.51 -13.473,-53.02 0,-66.275c13.474,-13.254 40.421,-13.254 53.895,13.255Z" style="fill:#6b0023;"/><path d="M896,853.961c13.473,-26.509 40.421,-26.509 53.894,-13.255c13.475,13.255 13.475,39.765 0,66.275c-9.431,19.882 -33.684,39.764 -53.894,53.019c-20.211,-13.255 -44.463,-33.137 -53.895,-53.019c-13.473,-26.51 -13.473,-53.02 0,-66.275c13.474,-13.254 40.421,-13.254 53.895,13.255Z" style="fill:#6b0023;"/><path d="M768,725.961c13.473,-26.509 40.421,-26.509 53.894,-13.255c13.475,13.255 13.475,39.765 0,66.275c-9.431,19.882 -33.684,39.764 -53.894,53.019c-20.211,-13.255 -44.463,-33.137 -53.895,-53.019c-13.473,-26.51 -13.473,-53.02 0,-66.275c13.474,-13.254 40.421,-13.254 53.895,13.255Z" style="fill:#6b0023;"/><path d="M1024,-42.039c13.473,-26.509 40.421,-26.509 53.894,-13.255c13.475,13.255 13.475,39.765 0,66.275c-9.431,19.882 -33.684,39.764 -53.894,53.019c-20.211,-13.255 -44.463,-33.137 -53.895,-53.019c-13.473,-26.51 -13.473,-53.02 0,-66.275c13.474,-13.254 40.421,-13.254 53.895,13.255Z" style="fill:#6b0023;"/><path d="M1024,213.961c13.473,-26.509 40.421,-26.509 53.894,-13.255c13.475,13.255 13.475,39.765 0,66.275c-9.431,19.882 -33.684,39.764 -53.894,53.019c-20.211,-13.255 -44.463,-33.137 -53.895,-53.019c-13.473,-26.51 -13.473,-53.02 0,-66.275c13.474,-13.254 40.421,-13.254 53.895,13.255Z" style="fill:#6b0023;"/><path d="M1024,469.961c13.473,-26.509 40.421,-26.509 53.894,-13.255c13.475,13.255 13.475,39.765 0,66.275c-9.431,19.882 -33.684,39.764 -53.894,53.019c-20.211,-13.255 -44.463,-33.137 -53.895,-53.019c-13.473,-26.51 -13.473,-53.02 0,-66.275c13.474,-13.254 40.421,-13.254 53.895,13.255Z" style="fill:#6b0023;"/><path d="M1024,725.961c13.473,-26.509 40.421,-26.509 53.894,-13.255c13.475,13.255 13.475,39.765 0,66.275c-9.431,19.882 -33.684,39.764 -53.894,53.019c-20.211,-13.255 -44.463,-33.137 -53.895,-53.019c-13.473,-26.51 -13.473,-53.02 0,-66.275c13.474,-13.254 40.421,-13.254 53.895,13.255Z" style="fill:#6b0023;"/><path d="M-0,981.961c13.473,-26.509 40.421,-26.509 53.894,-13.255c13.475,13.255 13.475,39.765 0,66.275c-9.431,19.882 -33.684,39.764 -53.894,53.019c-20.211,-13.255 -44.463,-33.137 -53.895,-53.019c-13.473,-26.51 -13.473,-53.02 0,-66.275c13.474,-13.254 40.421,-13.254 53.895,13.255Z" style="fill:#6b0023;"/><path d="M256,981.961c13.473,-26.509 40.421,-26.509 53.894,-13.255c13.475,13.255 13.475,39.765 0,66.275c-9.431,19.882 -33.684,39.764 -53.894,53.019c-20.211,-13.255 -44.463,-33.137 -53.895,-53.019c-13.473,-26.51 -13.473,-53.02 0,-66.275c13.474,-13.254 40.421,-13.254 53.895,13.255Z" style="fill:#6b0023;"/><path d="M512,981.961c13.473,-26.509 40.421,-26.509 53.894,-13.255c13.475,13.255 13.475,39.765 0,66.275c-9.431,19.882 -33.684,39.764 -53.894,53.019c-20.211,-13.255 -44.463,-33.137 -53.895,-53.019c-13.473,-26.51 -13.473,-53.02 0,-66.275c13.474,-13.254 40.421,-13.254 53.895,13.255Z" style="fill:#6b0023;"/><path d="M768,981.961c13.473,-26.509 40.421,-26.509 53.894,-13.255c13.475,13.255 13.475,39.765 0,66.275c-9.431,19.882 -33.684,39.764 -53.894,53.019c-20.211,-13.255 -44.463,-33.137 -53.895,-53.019c-13.473,-26.51 -13.473,-53.02 0,-66.275c13.474,-13.254 40.421,-13.254 53.895,13.255Z" style="fill:#6b0023;"/><path d="M1024,981.961c13.473,-26.509 40.421,-26.509 53.894,-13.255c13.475,13.255 13.475,39.765 0,66.275c-9.431,19.882 -33.684,39.764 -53.894,53.019c-20.211,-13.255 -44.463,-33.137 -53.895,-53.019c-13.473,-26.51 -13.473,-53.02 0,-66.275c13.474,-13.254 40.421,-13.254 53.895,13.255Z" style="fill:#6b0023;"/></svg>