<?xml version="1.0" encoding="UTF-8" standalone="no"?><!DOCTYPE svg PUBLIC "-//W3C//DTD SVG 1.1//EN" "http://www.w3.org/Graphics/SVG/1.1/DTD/svg11.dtd"><svg width="100%" height="100%" viewBox="0 0 704 1076" version="1.1" xmlns="http://www.w3.org/2000/svg" xmlns:xlink="http://www.w3.org/1999/xlink" xml:space="preserve" xmlns:serif="http://www.serif.com/" style="fill-rule:evenodd;clip-rule:evenodd;stroke-linecap:round;stroke-miterlimit:1.5;"><g><g><g transform="matrix(0.627841,0,0,1,3.78092,0)"><text x="10.159px" y="842.801px" style="font-family:'Bahnschrift-Regular', 'Bahnschrift';font-size:142.587px;fill:#fff;">L</text></g><g transform="matrix(0.627841,0,0,1,23.2048,0)"><text x="62.352px" y="842.801px" style="font-family:'Bahnschrift-Regular', 'Bahnschrift';font-size:142.587px;fill:#fff;">ANG LEV</text></g><g transform="matrix(0.627841,0,0,1,157.316,0)"><text x="422.713px" y="842.801px" style="font-family:'Bahnschrift-Regular', 'Bahnschrift';font-size:142.587px;fill:#fff;">E D</text></g><g transform="matrix(0.627841,0,0,1,207.715,0)"><text x="558.135px" y="842.801px" style="font-family:'Bahnschrift-Regular', 'Bahnschrift';font-size:142.587px;fill:#fff;">E</text></g></g></g><g><g><g transform="matrix(0.666072,0,0,1,0.433548,0)"><text x="1.298px" y="1075.71px" style="font-family:'Bahnschrift-Regular', 'Bahnschrift';font-size:285.768px;fill:#fff;">LIEF</text></g><g transform="matrix(0.666072,0,0,1,128.517,0)"><text x="384.863px" y="1075.71px" style="font-family:'Bahnschrift-Regular', 'Bahnschrift';font-size:285.768px;fill:#fff;">D<tspan x="569.604px " y="1075.71px ">E</tspan></text></g></g></g><path d="M685.424,1053.13l0,-778.9l-334.786,-256.207l-332.61,256.207l0,428.341l298.071,0c0,0 271.418,-180.429 271.418,-315.749c0,-135.32 -234.703,-186.529 -234.703,0m-66.631,247.758c0,0 -170.249,-112.438 -170.249,-247.758c0,-135.32 236.88,-186.529 236.88,0" style="fill:none;stroke:#fff;stroke-width:20px;"/></svg>