<?xml version="1.0" encoding="UTF-8" standalone="no"?><!DOCTYPE svg PUBLIC "-//W3C//DTD SVG 1.1//EN" "http://www.w3.org/Graphics/SVG/1.1/DTD/svg11.dtd"><svg width="100%" height="100%" viewBox="0 0 704 1076" version="1.1" xmlns="http://www.w3.org/2000/svg" xmlns:xlink="http://www.w3.org/1999/xlink" xml:space="preserve" xmlns:serif="http://www.serif.com/" style="fill-rule:evenodd;clip-rule:evenodd;stroke-linecap:round;stroke-miterlimit:1.5;"><g transform="matrix(0.627841,0,0,1,-82.8973,0)"><g transform="matrix(142.587,0,0,142.587,1106.22,842.801)"></g><text x="148.217px" y="842.801px" style="font-family:'Bahnschrift-Regular', 'Bahnschrift';font-size:142.587px;fill:#ae2346;">L<tspan x="231.347px " y="842.801px ">A</tspan>NG LEV<tspan x="805.316px " y="842.801px ">E</tspan> D<tspan x="1021.01px " y="842.801px ">E</tspan></text></g><g transform="matrix(0.666072,0,0,1,-186.133,0)"><g transform="matrix(285.768,0,0,285.768,1212.79,1075.71)"></g><text x="281.398px" y="1075.71px" style="font-family:'Bahnschrift-Regular', 'Bahnschrift';font-size:285.768px;fill:#ae2346;">LIEF<tspan x="857.259px 1042px " y="1075.71px 1075.71px ">DE</tspan></text></g><path d="M685.424,1053.13l-0,-778.9l-334.786,-256.207l-332.61,256.207l-0,428.341l298.071,-0c-0,-0 271.418,-180.429 271.418,-315.749c0,-135.32 -234.703,-186.529 -234.703,0m-66.631,247.758c-0,0 -170.249,-112.438 -170.249,-247.758c0,-135.32 236.88,-186.529 236.88,0" style="fill:none;stroke:#ae2346;stroke-width:20px;"/></svg>