<?xml version="1.0" encoding="UTF-8" standalone="no"?><!DOCTYPE svg PUBLIC "-//W3C//DTD SVG 1.1//EN" "http://www.w3.org/Graphics/SVG/1.1/DTD/svg11.dtd"><svg width="100%" height="100%" viewBox="0 0 704 1076" version="1.1" xmlns="http://www.w3.org/2000/svg" xmlns:xlink="http://www.w3.org/1999/xlink" xml:space="preserve" xmlns:serif="http://www.serif.com/" style="fill-rule:evenodd;clip-rule:evenodd;stroke-linecap:round;stroke-miterlimit:1.5;"><g><g transform="matrix(0.752383,0,0,1,-0.715825,0)"><text x="-2.891px" y="754.689px" style="font-family:'Bahnschrift-Regular', 'Bahnschrift', sans-serif;font-size:180.026px;fill:#fff;">L</text></g><g transform="matrix(0.752383,0,0,1,18.838,0)"><text x="76.077px" y="754.689px" style="font-family:'Bahnschrift-Regular', 'Bahnschrift', sans-serif;font-size:180.026px;fill:#fff;">ANG LEV</text></g><path d="M633.214,626.878l13.492,-0l0,127.811l-13.492,0l0,-127.811Zm6.548,110.758l55.224,-0l0,17.053l-55.224,0l-0,-17.053Zm-0,-54.94l47.949,0l0,17.054l-47.949,-0l-0,-17.054Zm-0,-55.818l55.224,-0l0,17.053l-55.224,0l-0,-17.053Z" style="fill:#fff;fill-rule:nonzero;"/><path d="M24.649,1007.34l37.277,0c12.161,0 21.584,-5.023 28.269,-15.069c6.684,-10.045 10.027,-24.212 10.027,-42.499l-0,-77.238c-0,-18.287 -3.343,-32.453 -10.027,-42.499c-6.685,-10.045 -16.108,-15.068 -28.269,-15.068l-37.277,-0l0,-35.01l36.597,-0c13.219,-0 24.511,3.669 33.877,11.008c9.367,7.339 16.505,18.046 21.414,32.123c4.91,14.076 7.365,31.039 7.365,50.89l-0,74.351c-0,19.851 -2.455,36.814 -7.365,50.89c-4.909,14.076 -12.066,24.784 -21.47,32.123c-9.404,7.339 -20.716,11.008 -33.934,11.008l-36.484,-0l0,-35.01Zm-15.635,-227.383l23.113,-0l0,262.393l-23.113,-0l-0,-262.393Z" style="fill:#fff;fill-rule:nonzero;"/><g transform="matrix(0.627841,0,0,1,51.5949,0)"><text x="138.637px" y="1042.35px" style="font-family:'Bahnschrift-Regular', 'Bahnschrift', sans-serif;font-size:369.588px;fill:#fff;">E</text></g></g><g><path d="M340.511,961.054l16.245,-2.84c0.77,13.02 2.56,23.702 5.371,32.047c2.811,8.345 7.176,15.092 13.094,20.241c5.919,5.149 12.577,7.723 19.975,7.723c6.569,0 12.369,-1.953 17.399,-5.859c5.031,-3.906 8.774,-9.262 11.23,-16.068c2.456,-6.806 3.684,-14.234 3.684,-22.283c0,-8.167 -1.183,-15.298 -3.551,-21.394c-2.367,-6.096 -6.273,-11.215 -11.718,-15.358c-3.492,-2.722 -11.215,-6.954 -23.17,-12.695c-11.955,-5.741 -20.329,-11.156 -25.123,-16.245c-6.214,-6.511 -10.845,-14.589 -13.893,-24.236c-3.048,-9.647 -4.572,-20.448 -4.572,-32.402c-0,-13.139 1.864,-25.419 5.593,-36.842c3.728,-11.422 9.173,-20.092 16.334,-26.011c7.161,-5.918 15.121,-8.877 23.88,-8.877c9.647,-0 18.155,3.107 25.523,9.321c7.368,6.214 13.035,15.358 17,27.431c3.966,12.074 6.096,25.745 6.392,41.014l-16.512,2.486c-0.888,-16.453 -3.891,-28.881 -9.01,-37.285c-5.12,-8.404 -12.68,-12.606 -22.682,-12.606c-10.416,-0 -18.007,3.817 -22.771,11.452c-4.764,7.634 -7.146,16.837 -7.146,27.608c-0,9.351 1.686,17.045 5.06,23.082c3.314,6.036 11.97,12.221 25.966,18.554c13.997,6.332 23.6,11.866 28.808,16.6c7.575,6.984 13.168,15.832 16.778,26.544c3.61,10.712 5.415,23.052 5.415,37.019c0,13.848 -1.982,26.898 -5.948,39.149c-3.965,12.251 -9.661,21.779 -17.089,28.585c-7.427,6.806 -15.787,10.209 -25.078,10.209c-11.778,0 -21.647,-3.432 -29.607,-10.297c-7.96,-6.866 -14.204,-17.193 -18.731,-30.983c-4.528,-13.789 -6.91,-29.384 -7.146,-46.784Z" style="fill:#fff;fill-rule:nonzero;"/><path d="M467.99,1044.68l0,-260.286l94.101,-0l0,30.716l-76.878,-0l-0,79.719l71.996,-0l-0,30.538l-71.996,0l-0,88.597l79.896,-0l0,30.716l-97.119,-0Z" style="fill:#fff;fill-rule:nonzero;"/><path d="M575.674,1044.68l50.335,-135.647l-44.388,-124.639l20.507,-0l23.614,66.758c4.912,13.849 8.404,24.502 10.476,31.959c2.9,-9.47 6.332,-19.353 10.297,-29.651l26.189,-69.066l18.731,-0l-45.718,122.686l49.269,137.6l-21.306,-0l-32.757,-92.858c-1.835,-5.327 -3.729,-11.126 -5.682,-17.4c-2.9,9.469 -4.971,15.98 -6.214,19.53l-32.669,90.728l-20.684,-0Z" style="fill:#fff;fill-rule:nonzero;"/></g><path d="M307.019,578.872c0,-0 342.684,-227.804 342.684,-398.654c-0,-170.851 -296.329,-235.506 -296.329,-0m-84.126,312.811c0,-0 -214.951,-141.961 -214.951,-312.811c0,-170.851 299.077,-235.506 299.077,-0" style="fill:none;stroke:#fff;stroke-width:25.25px;"/></svg>